<?xml version="1.0" standalone="no"?>
<!DOCTYPE svg PUBLIC "-//W3C//DTD SVG 20010904//EN"
 "http://www.w3.org/TR/2001/REC-SVG-20010904/DTD/svg10.dtd">
<svg version="1.0" xmlns="http://www.w3.org/2000/svg"
 width="149.000000pt" height="149.000000pt" viewBox="0 0 149.000000 149.000000"
 preserveAspectRatio="xMidYMid meet">
<metadata>
Created by potrace 1.11, written by Peter Selinger 2001-2013
</metadata>
<g transform="translate(0.000000,149.000000) scale(0.100000,-0.100000)"
fill="#000000" stroke="none">
<path d="M572 1048 c-9 -9 -12 -86 -12 -283 0 -278 2 -295 40 -295 8 0 20 -10
25 -22 7 -17 18 -23 40 -23 23 0 31 5 33 23 3 20 9 22 62 22 53 0 59 -2 62
-22 4 -33 59 -33 73 -1 5 13 17 23 25 23 38 0 40 17 40 295 0 197 -3 274 -12
283 -17 17 -359 17 -376 0z m356 -110 l3 -88 -171 0 -170 0 0 83 c0 46 3 87 7
91 4 3 79 5 167 4 l161 -3 3 -87z m0 -275 l-3 -158 -165 0 -165 0 -3 158 -3
157 171 0 171 0 -3 -157z m-258 -203 c0 -5 -4 -10 -10 -10 -5 0 -10 5 -10 10
0 6 5 10 10 10 6 0 10 -4 10 -10z m200 0 c0 -5 -4 -10 -10 -10 -5 0 -10 5 -10
10 0 6 5 10 10 10 6 0 10 -4 10 -10z"/>
<path d="M622 938 c-7 -7 -12 -25 -12 -40 l0 -29 68 3 c61 3 67 5 70 26 2 13
-2 30 -8 38 -15 17 -101 19 -118 2z m93 -28 c4 -6 -10 -10 -35 -10 -25 0 -39
4 -35 10 3 6 19 10 35 10 16 0 32 -4 35 -10z"/>
<path d="M614 786 c-3 -8 -4 -25 -2 -38 3 -20 9 -23 56 -26 62 -4 84 10 80 47
-3 25 -7 26 -66 29 -48 2 -64 0 -68 -12z m106 -26 c0 -5 -18 -10 -40 -10 -22
0 -40 5 -40 10 0 6 18 10 40 10 22 0 40 -4 40 -10z"/>
<path d="M887 693 c-12 -11 -8 -23 8 -23 8 0 15 7 15 15 0 16 -12 20 -23 8z"/>
<path d="M887 643 c-4 -3 -7 -33 -7 -65 0 -45 3 -58 15 -58 12 0 15 14 15 65
0 60 -6 75 -23 58z"/>
</g>
</svg>
